<svg xmlns="http://www.w3.org/2000/svg" width="749.319" height="400.009" viewBox="0 0 749.319 400.009">
  <g id="bg-info-diagram" transform="translate(-18.658 -69.849)">
    <path id="Path_2140" data-name="Path 2140" d="M141.789,244.912s116.175-21.237,178.886-21.237c79.41,0,89.435,54.417,142.814,54.417,72.769,0,196.3-167.227,324.73-167.227v301.1H141.789Z" transform="translate(-24.047 -8.011)" fill="#f2f8ee"/>
    <path id="Path_2141" data-name="Path 2141" d="M141.789,485.042" transform="translate(-24.047 -81.087)" fill="none" stroke="#007d70" stroke-miterlimit="10" stroke-width="2"/>
    <line id="Line_373" data-name="Line 373" x2="645.365" transform="translate(117.742 94.068)" fill="none" stroke="#dae8cd" stroke-miterlimit="10" stroke-width="1"/>
    <line id="Line_374" data-name="Line 374" x2="646.43" transform="translate(117.742 156.045)" fill="none" stroke="#dae8cd" stroke-miterlimit="10" stroke-width="1"/>
    <line id="Line_375" data-name="Line 375" x2="646.43" transform="translate(117.742 218.023)" fill="none" stroke="#dae8cd" stroke-miterlimit="10" stroke-width="1"/>
    <line id="Line_376" data-name="Line 376" x2="646.43" transform="translate(117.742 280)" fill="none" stroke="#dae8cd" stroke-miterlimit="10" stroke-width="1"/>
    <line id="Line_377" data-name="Line 377" x2="646.43" transform="translate(117.742 341.978)" fill="none" stroke="#dae8cd" stroke-miterlimit="10" stroke-width="1"/>
    <text id="_0" data-name="0" transform="translate(79.304 405.403)" fill="#133125" font-size="11" font-family="BasicSans-Regular, Basic Sans"><tspan x="-3.432" y="0">0</tspan></text>
    <text id="_5_000" data-name="5,000" transform="translate(79.324 346.071)" fill="#133125" font-size="14" font-family="BasicSans-Regular, Basic Sans"><tspan x="-18.522" y="0">5,000</tspan></text>
    <text id="_15_000" data-name="15,000" transform="translate(78.316 221.408)" fill="#133125" font-size="14" font-family="BasicSans-Regular, Basic Sans"><tspan x="-21.112" y="0">15,000</tspan></text>
    <text id="_10_000" data-name="10,000" transform="translate(77.409 283.74)" fill="#133125" font-size="14" font-family="BasicSans-Regular, Basic Sans"><tspan x="-21.406" y="0">10,000</tspan></text>
    <text id="_20_000" data-name="20,000" transform="translate(78.383 159.077)" fill="#133125" font-size="14" font-family="BasicSans-Regular, Basic Sans"><tspan x="-22.708" y="0">20,000</tspan></text>
    <text id="_25_000" data-name="25,000" transform="translate(77.383 96.745)" fill="#133125" font-size="14" font-family="BasicSans-Regular, Basic Sans"><tspan x="-22.414" y="0">25,000</tspan></text>
    <text id="FY18" transform="translate(126.459 433.863)" fill="#133125" font-size="14" font-family="BasicSans-Regular, Basic Sans"><tspan x="-14.427" y="0">FY18</tspan></text>
    <text id="FY19" transform="translate(283.644 433.973)" fill="#133125" font-size="14" font-family="BasicSans-Regular, Basic Sans"><tspan x="-14.301" y="0">FY19</tspan></text>
    <text id="FY20" transform="translate(439.579 433.973)" fill="#133125" font-size="14" font-family="BasicSans-Regular, Basic Sans"><tspan x="-15.813" y="0">FY20</tspan></text>
    <text id="FY21" transform="translate(596.599 433.973)" fill="#133125" font-size="14" font-family="BasicSans-Regular, Basic Sans"><tspan x="-14.035" y="0">FY21</tspan></text>
    <text id="FY22" transform="translate(751.976 433.863)" fill="#133125" font-size="14" font-family="BasicSans-Regular, Basic Sans"><tspan x="-15.337" y="0">FY22</tspan></text>
    <text id="Number_of_Entrepreneurs_Trained" data-name="Number of Entrepreneurs Trained" transform="translate(32.658 252.51) rotate(-90)" fill="#133125" font-size="14" font-family="BasicSans-Regular, Basic Sans" opacity="0.4"><tspan x="-102.48" y="0">Number of Entrepreneurs Trained</tspan></text>
    <text id="Fiscal_Year" data-name="Fiscal Year" transform="translate(435.12 466.858)" fill="#133125" font-size="14" font-family="BasicSans-Regular, Basic Sans" opacity="0.4"><tspan x="-32.256" y="0">Fiscal Year</tspan></text>
    <path id="Path_2142" data-name="Path 2142" d="M141.789,244.912s116.175-21.237,178.886-21.237c79.864,0,89.435,54.417,142.814,54.417,71.557,0,196.3-167.227,324.73-167.227" transform="translate(-24.047 -8.011)" fill="none" stroke="#007d70" stroke-miterlimit="10" stroke-width="4"/>
    <path id="Path_2143" data-name="Path 2143" d="M788.219,403.955H141.789V69.849" transform="translate(-24.047)" fill="none" stroke="#133125" stroke-miterlimit="10" stroke-width="2"/>
  </g>
</svg>
