<svg xmlns="http://www.w3.org/2000/svg" width="74.111" height="60" viewBox="0 0 74.111 60">
  <g id="logo-small" transform="translate(-8.23 -24.037)">
    <g id="Group_1158" data-name="Group 1158" transform="translate(19.692 54.099)">
      <path id="Path_1285" data-name="Path 1285" d="M25.508,59.152c-3.6,0-4.35-2.768-4.35-5.09h-1.48c0,4.114,2.18,6.569,5.83,6.569,4.209,0,4.371,2.919,4.375,3.247h1.48C31.363,63.83,31.3,59.152,25.508,59.152Z" transform="translate(-19.678 -54.062)" fill="#007d70"/>
      <path id="Path_1286" data-name="Path 1286" d="M59.131,63.878l1.479.005c.005-.333.167-3.252,4.375-3.252,3.651,0,5.83-2.455,5.83-6.569H69.337c0,2.322-.755,5.09-4.351,5.09C59.2,59.152,59.131,63.83,59.131,63.878Z" transform="translate(-19.629 -54.062)" fill="#007d70"/>
      <path id="Path_1287" data-name="Path 1287" d="M73.7,54.062A28.364,28.364,0,0,1,48.957,82.287V70.813c.113-2.877.461-4.912,3.926-4.912,2.427,0,5.2-1.215,6.38-6.158,2.7-.413,4.527-3.176,4.527-5.681h-1.48a4.526,4.526,0,0,1-2.745,4.066,28.244,28.244,0,0,0,.275-4.066H58.359c0,6.873-1.843,10.36-5.478,10.36-5.155,0-5.311,3.964-5.4,6.362V83.116l.007.818.814-.082a29.843,29.843,0,0,0,26.884-29.79Z" transform="translate(-19.644 -54.062)" fill="#007d70"/>
    </g>
    <path id="Path_1288" data-name="Path 1288" d="M43.036,70.755c-.093-2.369-.248-6.333-5.4-6.333-3.634,0-5.478-3.486-5.478-10.36H30.676a28.1,28.1,0,0,0,.275,4.066A4.527,4.527,0,0,1,28.2,54.062H26.726c0,2.505,1.827,5.268,4.527,5.681,1.174,4.943,3.953,6.158,6.38,6.158,3.465,0,3.813,2.036,3.925,4.883v11.5A28.364,28.364,0,0,1,16.811,54.062H15.332a29.842,29.842,0,0,0,26.884,29.79l.82.067Z" transform="translate(0.009 0.037)" fill="#007d70"/>
    <path id="Path_1289" data-name="Path 1289" d="M80.916,51.043a7.643,7.643,0,0,0-5.81-1.286c-1.462.24-1.872-.349-2.554-1.324a7.81,7.81,0,0,0-1.064-1.3,6.5,6.5,0,0,0-4.85-1.627c-.949-2.45-5.945-4.326-9.331-4.326H54.585a9.448,9.448,0,0,0-3.636-.925,8.791,8.791,0,0,0-3.847.959,13.052,13.052,0,0,0-3.248-.5.725.725,0,0,0-.479.128.932.932,0,0,0-.32.423,12,12,0,0,0-1.411-.643,1.16,1.16,0,0,0,.05-.726,1.139,1.139,0,0,0-.867-.795,5.416,5.416,0,0,0-2.573.169,3.722,3.722,0,0,1-1.972.14.745.745,0,0,0-.466-.057A3.357,3.357,0,0,0,33.9,41.181h-.634c-3.384,0-8.379,1.875-9.33,4.325a6.508,6.508,0,0,0-4.851,1.628,7.912,7.912,0,0,0-1.064,1.3c-.681.974-1.09,1.564-2.553,1.324a7.643,7.643,0,0,0-5.81,1.285,4.05,4.05,0,0,0-1.426,3.19H9.709a2.549,2.549,0,0,1,.905-2.063,6.2,6.2,0,0,1,4.614-.952c2.379.385,3.28-.9,4-1.935a6.527,6.527,0,0,1,.86-1.065,5.2,5.2,0,0,1,5.322-.89,1.939,1.939,0,0,1,1.337,1.633h1.48A3.3,3.3,0,0,0,26,45.971a5.266,5.266,0,0,0-.532-.185c.719-1.03,3.125-2.692,6.5-3.049a5.693,5.693,0,0,0-1.8,4.031,2.133,2.133,0,0,0,.826,1.866,1.27,1.27,0,0,1,.536,1.087,2.105,2.105,0,0,0,1.111,1.863,5.676,5.676,0,0,0,4.943-.291c.172-.053.214-.018.454.2a1.759,1.759,0,0,0,1.173.539h.011a4.551,4.551,0,0,1,.077.686,3.468,3.468,0,0,0,1.06,2.468c.04.138.081.273.122.406.286.92.405,1.388.007,1.975a.741.741,0,0,0-.127.38,8.076,8.076,0,0,0,.582,3.07A11.744,11.744,0,0,1,38.2,59.5a4.182,4.182,0,0,1-1.083-2.826V54.232H35.641v2.439a5.575,5.575,0,0,0,1.677,4.012,13.21,13.21,0,0,0,4.317,2.126c.218.543.438,1.1.621,1.649a1.808,1.808,0,0,0,1.8,1.294c.051,0,.1,0,.155-.005a2.953,2.953,0,0,0,.337-.055V84.019h1.48V65.1a6.942,6.942,0,0,0,2.221-2.11,13.209,13.209,0,0,0,5.007-2.306,5.579,5.579,0,0,0,1.677-4.012V54.232h-1.48v2.439A4.181,4.181,0,0,1,52.368,59.5a11.737,11.737,0,0,1-2.779,1.525,3.236,3.236,0,0,0-.016-.669c-.006-.053-.013-.107-.017-.161C51.912,59,51.64,57.379,51.4,55.941a11.545,11.545,0,0,1-.174-1.4,13.6,13.6,0,0,1,1.205-1.37c1.286-1.344,2.742-2.868,2.432-4.864a.973.973,0,0,0-.49-.734,1.629,1.629,0,0,0-1.467.161,4.889,4.889,0,0,1-.663.245,4.1,4.1,0,0,0-1.233-1.521c-.653-.586-1.052-.972-1-1.525a.738.738,0,0,0-.133-.491c-.39-.555-.675-1.013-.9-1.382-.2-.318-.373-.585-.548-.815a6.985,6.985,0,0,1,2.526-.509,7.949,7.949,0,0,1,3.215.883v.041h.072a2.688,2.688,0,0,1,1.04.8c1.312,2.391,3.089,3.6,5.28,3.6V45.582c-1.656,0-2.921-.9-3.983-2.835-.017-.03-.048-.057-.067-.087h.8c4.05,0,6.985,1.967,7.793,3.126a5.373,5.373,0,0,0-.533.185,3.3,3.3,0,0,0-2.225,2.989h1.479a1.94,1.94,0,0,1,1.337-1.633,5.2,5.2,0,0,1,5.323.891,6.494,6.494,0,0,1,.86,1.065c.724,1.034,1.627,2.321,4,1.934a6.2,6.2,0,0,1,4.615.952,2.549,2.549,0,0,1,.905,2.063h1.479A4.047,4.047,0,0,0,80.916,51.043ZM48.524,45.09a3.494,3.494,0,0,0,1.5,2.469c.441.393.856.765.868,1.105a.739.739,0,0,0,.387.627,2.429,2.429,0,0,0,2.121-.161,6.568,6.568,0,0,1-2.04,3.016,12.134,12.134,0,0,0-1.507,1.782.734.734,0,0,0-.113.4,11.418,11.418,0,0,0,.2,1.861c.249,1.485.352,2.1-1.4,2.85a.74.74,0,0,0-.435.541,3.1,3.1,0,0,0,0,.939,3.3,3.3,0,0,1,.027.361,1.034,1.034,0,0,1-.192.043.737.737,0,0,0-.624.593,4.592,4.592,0,0,1-3.2,2.757c-.311.02-.386-.075-.453-.276-.229-.694-.5-1.368-.765-2.019A11.054,11.054,0,0,1,41.831,58.2a3.5,3.5,0,0,0,.059-3.05c-.053-.172-.109-.348-.159-.532a.728.728,0,0,0-.172-.309,2.135,2.135,0,0,1-.789-1.68,5.054,5.054,0,0,0-.368-1.769.738.738,0,0,0-1.043-.373c-.086.047-.133.06-.136.065a1.593,1.593,0,0,1-.206-.167,1.821,1.821,0,0,0-1.982-.468.78.78,0,0,0-.128.059,4.315,4.315,0,0,1-3.539.323A.632.632,0,0,1,33,49.7a2.717,2.717,0,0,0-1-2.142c-.316-.3-.391-.384-.368-.687a4.121,4.121,0,0,1,2.8-3.962.744.744,0,0,0,.359-.323l.084-.154a5.4,5.4,0,0,1,1.083-1.562,5.289,5.289,0,0,0,2.607-.157,8.271,8.271,0,0,1,1.357-.23A.739.739,0,0,0,40.2,41.62c.268.125.561.243.86.363a8.228,8.228,0,0,1,1.563.752A.826.826,0,0,0,43.3,43a1.21,1.21,0,0,0,.932-.769c2.62.214,2.666.288,3.483,1.607C47.923,44.178,48.18,44.592,48.524,45.09Z" transform="translate(0 0.018)" fill="#6ba539"/>
    <path id="Path_1290" data-name="Path 1290" d="M73.562,43.915a30.066,30.066,0,0,0-56.574,0h1.594a28.562,28.562,0,0,1,53.386,0Z" transform="translate(0.011 0)" fill="#007d70"/>
  </g>
</svg>
