<svg xmlns="http://www.w3.org/2000/svg" width="23.727" height="23.727" viewBox="0 0 23.727 23.727">
  <path id="ico-twitter" d="M11.863,0A11.863,11.863,0,1,0,23.727,11.863,11.864,11.864,0,0,0,11.863,0Zm6,9.535a8.075,8.075,0,0,1-12.423,7.17,5.713,5.713,0,0,0,4.2-1.175,2.846,2.846,0,0,1-2.653-1.972,2.848,2.848,0,0,0,1.283-.048,2.844,2.844,0,0,1-2.278-2.82,2.833,2.833,0,0,0,1.286.355A2.844,2.844,0,0,1,6.4,7.252a8.06,8.06,0,0,0,5.853,2.967,2.842,2.842,0,0,1,4.839-2.59,5.664,5.664,0,0,0,1.8-.689,2.851,2.851,0,0,1-1.249,1.571,5.665,5.665,0,0,0,1.63-.448A5.7,5.7,0,0,1,17.86,9.535Z" fill="#fff"/>
</svg>
