<svg xmlns="http://www.w3.org/2000/svg" width="23.727" height="23.727" viewBox="0 0 23.727 23.727">
  <path id="ico-instagram" d="M14.66,6.23c-.73-.034-.949-.04-2.8-.04s-2.066.007-2.8.04A2.6,2.6,0,0,0,6.23,9.068c-.033.73-.041.948-.041,2.8s.008,2.066.041,2.8A2.6,2.6,0,0,0,9.068,17.5c.729.033.948.041,2.8.041s2.067-.007,2.8-.041A2.6,2.6,0,0,0,17.5,14.66c.033-.73.04-.949.04-2.8s-.007-2.066-.04-2.8A2.6,2.6,0,0,0,14.66,6.23Zm-2.8,9.187a3.554,3.554,0,1,1,3.554-3.554A3.554,3.554,0,0,1,11.863,15.417ZM15.558,9a.83.83,0,1,1,.83-.83A.83.83,0,0,1,15.558,9ZM14.17,11.863a2.306,2.306,0,1,1-2.306-2.306A2.306,2.306,0,0,1,14.17,11.863ZM11.863,0A11.863,11.863,0,1,0,23.727,11.863,11.864,11.864,0,0,0,11.863,0Zm6.879,14.716a3.82,3.82,0,0,1-4.025,4.026c-.738.034-.975.042-2.854.042s-2.115-.008-2.853-.042a3.821,3.821,0,0,1-4.026-4.026c-.034-.738-.042-.974-.042-2.853s.008-2.115.042-2.853A3.819,3.819,0,0,1,9.01,4.986c.738-.035.974-.043,2.853-.043s2.116.008,2.854.043A3.819,3.819,0,0,1,18.742,9.01c.034.738.042.974.042,2.853S18.776,13.979,18.742,14.716Z" fill="#fff"/>
</svg>
